# xmcd
#
# Track frame offsets: 
#        150
#        16758
#        28783
#        41427
#        55027
#        67152
#        81046
#        103713
#        116001
#        128032
#        142919
#        154037
#        168092
#        180370
#        195604
#        215274
#        230406
#        244608
#        256345
#        270692
#        283477
#        297751
#        313156
#
# Disc length: 4386 seconds
#
# Revision: 0
# Processed by: cddbd v1.5.2PL0 Copyright (c) Steve Scherf et al.
# Submitted via: ExactAudioCopy v0.95b4
#
DISCID=41112017
DTITLE=Johnny Lee - Greatest Hits and More [Disc 2]
DYEAR=2006
DGENRE=Country
TTITLE0=Your Song
TTITLE1=This Time
TTITLE2=Have To Say I Love You
TTITLE3=In My Dreams
TTITLE4=She's Mine
TTITLE5=Rock It Billy
TTITLE6=They Call It The Blues
TTITLE7=Everybody Wants To Be Single
TTITLE8=Maybe I Won't Love You Anymore
TTITLE9=I'm Not Over You
TTITLE10=Are You A Fool For Love
TTITLE11=What's A Fool Like Me Doin' In A Love Like This
TTITLE12=It Ain't The Leavin'
TTITLE13=Save The Last Chance
TTITLE14=Till She Runs Out Of Reasons
TTITLE15=The Never Had To Get Over You
TTITLE16=Somebody Like You
TTITLE17=I've Come A Long Way
TTITLE18=A Little Bit Of Lovin'
TTITLE19=It's Up To You
TTITLE20=Just Like Old Times
TTITLE21=Lovin' You Is Just An Old Habit
TTITLE22=Peace In The Valley
EXTD=
EXTT0=
EXTT1=
EXTT2=
EXTT3=
EXTT4=
EXTT5=
EXTT6=
EXTT7=
EXTT8=
EXTT9=
EXTT10=
EXTT11=
EXTT12=
EXTT13=
EXTT14=
EXTT15=
EXTT16=
EXTT17=
EXTT18=
EXTT19=
EXTT20=
EXTT21=
EXTT22=
PLAYORDER=
